<svg width="22" height="22" viewBox="0 0 22 22" fill="none" xmlns="http://www.w3.org/2000/svg">
<path fill-rule="evenodd" clip-rule="evenodd" d="M11 0C13.0488 0.0233791 14.8996 0.526908 16.5526 1.51059C18.1858 2.47463 19.5445 3.84156 20.4985 5.48066C21.4762 7.14358 21.9767 9.00566 22 11.0669C21.9419 13.8872 21.0524 16.296 19.3314 18.2933C17.6104 20.2907 15.4061 21.5263 13.1244 22V14.0928H15.2816L15.7695 10.9854H12.5029V8.9502C12.4847 8.52828 12.6182 8.1138 12.879 7.78169C13.1403 7.44868 13.6003 7.27365 14.2591 7.25661H16.2317V4.53464C16.2034 4.52553 15.9348 4.48952 15.426 4.42661C14.849 4.35909 14.2686 4.32303 13.6877 4.31858C12.3727 4.32464 11.3328 4.69556 10.5678 5.43134C9.80288 6.1669 9.41212 7.23111 9.39556 8.62396V10.9854H6.90968V14.0928H9.39556V22C6.59384 21.5263 4.38962 20.2907 2.6686 18.2933C0.947572 16.296 0.0580718 13.8872 0 11.0669C0.0232341 9.00557 0.523718 7.14348 1.50145 5.48066C2.45553 3.84156 3.81416 2.47463 5.44741 1.51059C7.10032 0.527097 8.95118 0.0235685 11 0Z" fill="#282D3C"/>
</svg>
