<svg width="24" height="24" viewBox="0 0 24 24" fill="none" xmlns="http://www.w3.org/2000/svg">
<g clip-path="url(#clip0_30_470)">
<path d="M16.1892 21.2807L19.2628 19.5061L15.7508 13.4344L12.4445 15.3433C10.3853 13.6687 9.19088 11.6111 8.81858 9.08537L12.1249 7.17647L8.63232 1.0936L5.55872 2.86814C4.48248 3.48951 3.71072 4.50391 3.38083 5.73507C1.89532 11.2791 7.0734 20.2478 12.6174 21.7333C13.8486 22.0632 15.1129 21.902 16.1892 21.2807ZM4.91021 6.14486C5.12945 5.32664 5.64023 4.64391 6.34598 4.24291L8.05246 3.25767L9.97814 6.59306L7.13725 8.23326L7.18814 8.74685C7.53142 12.0844 9.11919 14.8457 11.9107 16.9378L12.326 17.254L15.1745 15.6158L17.1002 18.9512L15.3937 19.9365C14.6859 20.3451 13.8469 20.4481 13.0287 20.2289C8.26468 18.9524 3.63519 10.9339 4.91171 6.16985L4.91021 6.14486Z" fill="#007BFB"/>
</g>
<defs>
<clipPath id="clip0_30_470">
<rect width="19" height="19" fill="white" transform="translate(23.2703 4.91748) rotate(105)"/>
</clipPath>
</defs>
</svg>
