<svg width="19" height="19" viewBox="0 0 19 19" fill="none" xmlns="http://www.w3.org/2000/svg">
<path fill-rule="evenodd" clip-rule="evenodd" d="M10.4302 4.26017C10.1244 3.73597 9.78934 3.52889 9.51539 3.51259C9.28039 3.4986 8.93702 3.65189 8.5685 4.14592C8.21487 4.62008 7.93466 5.29233 7.81711 5.9869C7.69839 6.68863 7.75948 7.32582 7.98381 7.76769C8.18497 8.16399 8.5415 8.46086 9.21857 8.50115C9.89668 8.5415 10.2959 8.28819 10.5516 7.91414C10.8345 7.50031 10.9786 6.87489 10.9504 6.16745C10.9224 5.46638 10.7275 4.76961 10.4302 4.26017ZM11.6545 8.66804C11.1288 9.43709 10.2768 9.90241 9.13922 9.83473C8.00064 9.76698 7.2141 9.20278 6.79258 8.37242C6.39418 7.58763 6.35292 6.63261 6.49989 5.76402C6.64809 4.88825 7.0017 4.0121 7.49765 3.34718C7.97874 2.70219 8.7008 2.12582 9.59474 2.17901C10.5062 2.23324 11.1708 2.87865 11.5841 3.58687C12.0059 4.30982 12.2497 5.22527 12.2852 6.11411C12.3205 6.9966 12.153 7.93876 11.6545 8.66804Z" fill="#007BFB"/>
<path fill-rule="evenodd" clip-rule="evenodd" d="M11.3958 10.0288L15.4835 11.7404V14.8223C15.4835 15.1498 15.2799 15.4347 14.9868 15.5496C12.8217 16.3986 11.0892 16.8344 9.36917 16.8271C7.64685 16.8199 5.99779 16.3687 4.00083 15.5461C3.7134 15.4276 3.5166 15.1455 3.5166 14.8237V11.7517L7.36003 10.035L7.90486 11.2548L4.85254 12.6182V14.4496C6.60731 15.1468 7.98599 15.4853 9.37484 15.4912C10.7709 15.4971 12.2314 15.167 14.1475 14.4414V12.6294L10.8798 11.2611L11.3958 10.0288Z" fill="#007BFB"/>
<path fill-rule="evenodd" clip-rule="evenodd" d="M10.1786 10.5317H8.82142V11.4073L8.69629 12.8672L9.49999 14.7424L10.3037 12.8672L10.1786 11.4076V10.5317Z" fill="#007BFB"/>
</svg>
