<svg width="22" height="22" viewBox="0 0 22 22" fill="none" xmlns="http://www.w3.org/2000/svg">
<circle cx="11" cy="11" r="11" fill="#282D3C"/>
<path d="M13.949 5H8.05095C6.37108 5 5 6.3649 5 8.05095V13.949C5 15.6289 6.3649 17 8.05095 17H13.949C15.6289 17 17 15.6351 17 13.949V8.05095C16.9938 6.3649 15.6289 5 13.949 5ZM10.9969 14.9434C8.82295 14.9434 7.05044 13.1709 7.05044 10.9969C7.05044 8.82295 8.82295 7.05044 10.9969 7.05044C13.1709 7.05044 14.9434 8.82295 14.9434 10.9969C14.9434 13.1709 13.1709 14.9434 10.9969 14.9434ZM15.141 7.48893C14.7705 7.48893 14.474 7.19249 14.474 6.82192C14.474 6.45136 14.7705 6.15492 15.141 6.15492C15.5116 6.15492 15.808 6.45136 15.808 6.82192C15.808 7.19249 15.5116 7.48893 15.141 7.48893Z" fill="white"/>
<path d="M13.3956 11.0255C13.4114 9.70204 12.3515 8.61631 11.028 8.60043C9.70459 8.58454 8.61886 9.64453 8.60297 10.968C8.58709 12.2914 9.64708 13.3771 10.9705 13.393C12.2939 13.4089 13.3797 12.3489 13.3956 11.0255Z" fill="white"/>
</svg>
