<svg width="675" height="334" viewBox="0 0 675 334" fill="none" xmlns="http://www.w3.org/2000/svg">
<mask id="mask0_1_923" style="mask-type:alpha" maskUnits="userSpaceOnUse" x="0" y="0" width="791" height="682">
<path d="M0 30C0 13.4315 13.4315 0 30 0H760.271C776.84 0 790.271 13.4315 790.271 30V651.774C790.271 668.342 776.84 681.774 760.271 681.774H30C13.4315 681.774 0 668.342 0 651.774V30Z" fill="#4A3AFF"/>
</mask>
<g mask="url(#mask0_1_923)">
<ellipse cx="671.849" cy="230.779" rx="123.024" ry="117.97" transform="rotate(90 671.849 230.779)" fill="white" fill-opacity="0.17"/>
<path opacity="0.1" d="M316.217 -15.2682C316.217 0.887512 319.268 16.885 325.197 31.811C331.125 46.7369 339.815 60.299 350.769 71.7228C361.724 83.1466 374.729 92.2085 389.042 98.391C403.354 104.574 418.695 107.756 434.187 107.756C449.679 107.756 465.019 104.573 479.332 98.391C493.645 92.2084 506.649 83.1466 517.604 71.7227C528.558 60.2989 537.248 46.7369 543.177 31.8109C549.105 16.885 552.156 0.887471 552.156 -15.2683L434.187 -15.2682L316.217 -15.2682Z" fill="white"/>
<path opacity="0.1" d="M197.68 354.02C213.233 354.02 228.633 350.825 243.001 344.619C257.37 338.412 270.426 329.315 281.423 317.846C292.42 306.378 301.144 292.763 307.095 277.779C313.047 262.794 316.11 246.734 316.11 230.516C316.11 214.297 313.047 198.237 307.095 183.253C301.144 168.269 292.42 154.654 281.423 143.185C270.426 131.717 257.37 122.62 243.001 116.413C228.633 110.206 213.232 107.012 197.68 107.012L197.68 230.516L197.68 354.02Z" fill="white"/>
<rect opacity="0.2" x="553.004" y="107.089" width="246.925" height="236.784" rx="28" transform="rotate(90 553.004 107.089)" fill="white"/>
<path d="M553.004 107.089L679.148 -20.8588L789.785 -139.836L789.785 107.089L553.004 107.089Z" fill="white" fill-opacity="0.38"/>
</g>
</svg>
