<svg width="27" height="28" viewBox="0 0 27 28" fill="none" xmlns="http://www.w3.org/2000/svg">
<path fill-rule="evenodd" clip-rule="evenodd" d="M13.5049 0.504639C20.9607 0.504639 27.0049 6.54731 27.0049 14.0065C27.0049 21.4619 20.9607 27.5046 13.5049 27.5046C6.04919 27.5046 0.00488281 21.4622 0.00488281 14.0065C0.00488281 6.54731 6.04908 0.504639 13.5049 0.504639Z" fill="#007BFB"/>
<path fill-rule="evenodd" clip-rule="evenodd" d="M8.17679 10.0174L9.50941 8.78719C9.53575 8.76353 9.57105 8.75029 9.60781 8.75029C9.64456 8.75029 9.67986 8.76353 9.7062 8.78719L12.1002 10.9974C12.1259 11.0217 12.1402 11.0543 12.1402 11.0882C12.1402 11.1222 12.1259 11.1548 12.1002 11.1791L10.8274 12.3541C10.7045 12.4671 10.629 12.6167 10.6145 12.7763C10.6 12.9359 10.6475 13.095 10.7483 13.2253C11.6551 14.4024 13.0649 15.704 14.3399 16.5411C14.4811 16.6342 14.6534 16.678 14.8263 16.6646C14.9991 16.6513 15.1612 16.5816 15.2835 16.4681L16.5564 15.2931C16.5827 15.2694 16.6181 15.2561 16.6548 15.2561C16.6916 15.2561 16.7269 15.2694 16.7532 15.2931L19.1473 17.5031C19.173 17.5274 19.1873 17.56 19.1873 17.594C19.1873 17.6279 19.173 17.6606 19.1473 17.6849L17.8147 18.9153C17.6772 19.0475 17.5058 19.1456 17.3165 19.2007C17.1271 19.2557 16.9258 19.266 16.7311 19.2305C15.0426 18.9551 12.9649 17.8032 11.1731 16.149C9.38134 14.4948 8.13357 12.5766 7.83523 11.0179C7.79674 10.8381 7.80784 10.6522 7.86751 10.4774C7.92718 10.3026 8.03351 10.1444 8.17671 10.0174H8.17679ZM8.28102 13.9881C8.88831 14.9096 9.68975 15.8402 10.5987 16.6793C11.5077 17.5184 12.5156 18.2584 13.5137 18.819C14.5927 19.4252 15.6277 19.8121 16.5897 19.969C16.714 19.9895 16.8399 19.9999 16.9661 20C17.2314 20.0001 17.4941 19.9511 17.7385 19.8559C17.9829 19.7606 18.2042 19.6211 18.3892 19.4455L19.7217 18.2152C19.8999 18.0503 20 17.8269 20 17.594C20 17.3611 19.8999 17.1377 19.7217 16.9728L17.3278 14.7627C17.1492 14.5982 16.9072 14.5059 16.655 14.5059C16.4027 14.5059 16.1607 14.5982 15.9821 14.7627L14.7566 15.8941C13.599 15.1234 12.2842 13.9094 11.4494 12.8408L12.6747 11.7094C12.8529 11.5446 12.9529 11.3212 12.9529 11.0883C12.9529 10.8554 12.8529 10.632 12.6747 10.4671L10.2805 8.25692C10.1019 8.0924 9.85992 8 9.60764 8C9.35536 8 9.11339 8.0924 8.93482 8.25692L7.6022 9.48712C7.3663 9.69916 7.19103 9.96189 7.09208 10.2518C6.99312 10.5417 6.97357 10.8497 7.03516 11.1483C7.20527 12.0365 7.62438 12.9919 8.28102 13.9881Z" fill="white"/>
</svg>
