<svg width="15" height="12" viewBox="0 0 15 12" fill="none" xmlns="http://www.w3.org/2000/svg">
<path fill-rule="evenodd" clip-rule="evenodd" d="M4.531 0.130188C3.36437 0.130188 2.34721 0.956548 2.12047 2.10914L2.11995 2.11179L1.97673 2.85394L1.72204 4.10805C0.739068 4.32837 0 5.20983 0 6.2573V9.51497V10.265H0.749998H2.36803V11.8699H3.86803V10.265H10.2178V11.8699H11.7178V10.265H13.3489H14.0989V9.51497V6.2573C14.0989 5.21034 13.3606 4.32922 12.3783 4.10837L11.9784 2.10914L11.9782 2.10792C11.751 0.955978 10.7342 0.130188 9.56793 0.130188H4.531ZM10.8379 4.05509H3.26341L3.44745 3.14891L3.44887 3.14175L3.59248 2.39757C3.68017 1.95459 4.07571 1.63019 4.531 1.63019H9.56793C10.0236 1.63019 10.4194 1.95511 10.5067 2.39867L10.5071 2.40099L10.8379 4.05509ZM1.5 6.2573C1.5 5.87345 1.81836 5.55509 2.20221 5.55509H11.8967C12.2805 5.55509 12.5989 5.87345 12.5989 6.2573V8.76497H1.5V6.2573ZM3.98184 7.16017C3.98184 7.63115 3.60243 8.02364 3.11836 8.02364C2.64737 8.02364 2.25488 7.64424 2.25488 7.16017C2.25488 6.68918 2.63429 6.29669 3.11836 6.29669C3.58935 6.29669 3.98184 6.68918 3.98184 7.16017ZM11.8314 7.16017C11.8314 7.63115 11.452 8.02364 10.9679 8.02364C10.497 8.02364 10.1045 7.64424 10.1045 7.16017C10.1045 6.68918 10.4839 6.29669 10.9679 6.29669C11.4389 6.29669 11.8314 6.68918 11.8314 7.16017Z" fill="#8C94A8"/>
</svg>
