<svg width="46" height="45" viewBox="0 0 46 45" fill="none" xmlns="http://www.w3.org/2000/svg">
<path d="M15.1559 38.8465H16.5932V39.7649H15.1559V38.8465ZM4.99512 15.3735H5.84093V16.2919H4.99512V15.3735ZM34.1193 26.5937H33.2009C33.2009 26.9978 33.1018 27.3986 32.9139 27.7531L33.7249 28.1834C33.9839 27.6935 34.1195 27.1478 34.1198 26.5937H34.1193ZM34.8995 22.9836C34.7615 22.6699 34.6906 22.3308 34.6914 21.9881H33.7731C33.7731 22.4629 33.8695 22.9221 34.0587 23.3532L34.8995 22.9836Z" fill="#007BFB"/>
<path d="M44.8109 31.0041C44.8106 30.2853 44.5822 29.5852 44.1587 29.0044C43.7351 28.4237 43.1382 27.9923 42.4539 27.7724C43.1377 25.9728 42.1541 23.9139 40.2857 23.3358C40.4652 22.9225 40.5658 22.467 40.5658 21.988H40.5263C40.5327 21.557 40.458 21.1286 40.3059 20.7253C40.1366 20.2712 39.8714 19.859 39.5282 19.5168C39.1851 19.1746 38.7722 18.9105 38.3176 18.7425C38.7428 16.7336 37.2215 14.665 34.9913 14.665C33.116 14.665 31.5901 16.1886 31.5901 18.0611C31.5901 18.2925 31.6135 18.5208 31.6599 18.7425C29.8232 19.4208 28.9434 21.5426 29.7488 23.316C29.3041 23.4449 28.8909 23.6643 28.5351 23.9604C28.1793 24.2566 27.8885 24.6231 27.6811 25.037C27.2375 25.9118 27.1884 26.8972 27.525 27.7733C25.0431 28.5654 24.3694 31.7498 26.2319 33.4754C27.435 34.5903 29.3442 34.763 30.7043 33.6394C31.2958 34.1251 32.0361 34.3929 32.8014 34.3979C32.6077 37.3445 31.9336 40.3196 30.7902 43.2556H23.5645V41.1557H25.6014V37.4556H22.1135V36.5749H24.3451V33.8924H22.1135V33.4121H24.3451V30.7291H9.3771V33.4121H11.6087V33.8924H9.3771V36.5754H11.6087V37.4561H8.12169V41.1557H10.1582V43.2551H7.22031V25.2111H7.88567L9.9474 17.1377L8.32832 14.0804H3.07021L1.45113 17.1377L3.50827 25.2111H4.17822V43.2556H1.18848V44.174H30.4298L30.4293 44.1758H39.6143L39.6134 44.174H43.6001V43.2556H39.252C38.1078 40.3196 37.4337 37.3422 37.2404 34.3924C37.9819 34.3699 38.6956 34.1051 39.2723 33.6385C41.4658 35.4536 44.7806 33.8451 44.8091 31.0386C44.8091 31.0275 44.8109 31.017 44.8109 31.006V31.0046V31.0041ZM7.77501 14.9988L8.69521 16.7368H2.70286L2.93843 16.2914H4.6498V15.373H3.4247L3.62307 14.9988H7.77501ZM2.53113 17.6556H5.18521V20.3024H6.10358V17.6556H8.86695L7.17164 24.2927H6.10358V21.6101H5.18521V24.2927H4.2223L2.53113 17.6556ZM5.09613 43.2551V25.2138H6.30103V43.2551H5.09613ZM10.2945 31.647H23.4272V32.4932H10.2945V31.647ZM12.5262 33.4116H21.1951V33.8919H12.5271L12.5262 33.4116ZM10.2945 34.8103H23.4272V35.6566H10.2945V34.8103ZM12.5262 36.5749H21.1951V37.4556H12.5271L12.5262 36.5749ZM9.03914 40.2369V39.7644H14.2077V38.8461H9.0396V38.374H24.6831V40.2369H9.03914ZM11.0756 43.2551V41.1553H12.1983V43.2551H11.0756ZM13.1167 43.2551V41.1553H20.6051V43.2551H13.1167ZM21.5234 43.2551V41.1553H22.6457V43.2551H21.5234ZM30.703 32.3344L30.3668 32.6962C29.3704 33.7684 27.8115 33.6867 26.8555 32.8014C25.4485 31.4973 26.0473 29.0627 27.9929 28.6063C28.2705 28.984 28.6234 29.3001 29.0294 29.5346C29.4353 29.769 29.8855 29.9167 30.3515 29.9684C30.8174 30.02 31.289 29.9745 31.7365 29.8347C32.1839 29.6948 32.5975 29.4637 32.9511 29.1559L32.3478 28.463C31.8971 28.8553 31.3198 29.0714 30.7223 29.0714C28.8727 29.0714 27.6673 27.0946 28.4998 25.4517C28.6897 25.0727 28.9747 24.7495 29.3269 24.5137C29.6791 24.2779 30.0865 24.1375 30.5092 24.1063L31.3339 24.042L30.8435 23.3762C29.7864 21.9417 30.5817 19.8721 32.3225 19.5043L32.846 19.3932L32.6572 18.8927C32.5579 18.6266 32.5075 18.3447 32.5085 18.0606C32.5085 16.6946 33.622 15.5834 34.9908 15.5834C36.7628 15.5834 37.8952 17.365 37.3193 18.8931L37.1311 19.3937L37.6541 19.5039C38.4898 19.6806 39.1428 20.2436 39.4463 21.049C40.0464 22.6415 38.8746 23.6434 38.7667 23.8661C38.3341 24.2348 37.7804 24.4658 37.1687 24.4658C36.8407 24.4668 36.5158 24.4022 36.2132 24.2758C35.9105 24.1494 35.6362 23.9637 35.4064 23.7297L34.753 24.3753C35.068 24.696 35.444 24.9504 35.8588 25.1236C36.2735 25.2969 36.7188 25.3855 37.1683 25.3842C38.2198 25.3842 39.1611 24.9039 39.7852 24.1513C41.441 24.4956 42.2785 26.4045 41.3946 27.8555L41.0245 28.463L41.7303 28.5502C42.9622 28.7018 43.8916 29.757 43.8921 31.0046C43.8912 33.1526 41.3142 34.2919 39.7273 32.8092C39.6942 32.7775 39.6607 32.7486 39.6281 32.7141C39.1844 32.2552 38.936 31.642 38.9352 31.0037H38.0168C38.0168 31.7333 38.2506 32.4078 38.6432 32.9621C38.2124 33.3009 37.68 33.4845 37.132 33.4832C36.7929 33.4848 36.4573 33.4156 36.1465 33.2801C35.8357 33.1445 35.5566 32.9457 35.3269 32.6962L34.9908 32.3344L34.6542 32.6962C33.7028 33.7202 32.0369 33.7702 31.0395 32.6962L30.703 32.3344ZM35.54 43.2551V41.1383H34.6216V43.2551H31.7793C32.9025 40.2778 33.555 37.26 33.7317 34.2703C34.19 34.1454 34.6226 33.9378 34.9917 33.6366C35.3775 33.9516 35.832 34.1661 36.3128 34.2873C36.4905 37.2733 37.1426 40.2847 38.2643 43.2551H35.54Z" fill="#007BFB"/>
<path d="M34.6215 38.786H35.5399V40.153H34.6215V38.786ZM16.6252 15.5756C16.6252 17.084 17.8526 18.3114 19.361 18.3114C20.8694 18.3114 22.0968 17.084 22.0968 15.5756C22.0968 14.0672 20.8694 12.8402 19.361 12.8402C17.8526 12.8402 16.6252 14.0672 16.6252 15.5756ZM19.361 13.7582C19.8429 13.7586 20.3049 13.9503 20.6456 14.291C20.9863 14.6317 21.178 15.0937 21.1784 15.5756C21.178 16.0575 20.9863 16.5195 20.6456 16.8602C20.3049 17.2009 19.8429 17.3926 19.361 17.3931C18.8791 17.3926 18.4171 17.2009 18.0764 16.8602C17.7357 16.5195 17.544 16.0575 17.5435 15.5756C17.544 15.0937 17.7357 14.6317 18.0764 14.291C18.4171 13.9503 18.8791 13.7586 19.361 13.7582ZM18.9018 9.53688H19.8202V11.611H18.9018V9.53688ZM16.2349 13.0992L14.7682 11.6331L15.4175 10.9838L16.8842 12.4499L16.2349 13.0992ZM13.3223 15.1164H15.3964V16.0348H13.3223V15.1164ZM15.4152 20.1739L14.7659 19.5246L16.2321 18.058L16.8814 18.7072L15.4152 20.1739ZM18.9018 19.5402H19.8202V21.6143H18.9018V19.5402ZM23.3072 20.1748L21.8406 18.7082L22.4899 18.0589L23.9565 19.5255L23.3072 20.1748ZM23.326 15.1164H25.4002V16.0348H23.326V15.1164ZM22.4903 13.1001L21.841 12.4509L23.3072 10.9842L23.9565 11.6335L22.4903 13.1001ZM32.0886 8.16943H34.723V9.0878H32.0886V8.16943Z" fill="#007BFB"/>
<path d="M26.6752 9.08776H31.0696V8.16939H28.5859C28.5207 7.89807 28.5104 7.61646 28.5556 7.34109C28.6007 7.06573 28.7005 6.80218 28.849 6.56592C29.0205 6.28734 29.2552 6.05315 29.5343 5.8824C29.8133 5.71165 30.1287 5.60916 30.4548 5.58327L30.8781 5.54791L30.8763 5.12317C30.8744 4.58494 31.002 4.05414 31.2481 3.57548C31.4942 3.09681 31.8517 2.68429 32.2906 2.37266C33.4013 1.58424 34.8147 1.53557 35.9792 2.24546C37.1474 2.9572 37.7544 4.23189 37.5643 5.57179L37.3747 6.93235L38.3472 5.9598C39.3005 5.28526 40.3088 5.57684 40.8824 6.03143C41.4003 6.44148 41.8618 7.22853 41.6184 8.16939H35.7161V9.08776H43.1838V8.16939H42.5565C42.7476 7.09766 42.3531 6.02409 41.4527 5.31143C40.5853 4.62449 39.4984 4.46194 38.5107 4.84077C38.4331 3.46092 37.691 2.21332 36.4572 1.46118C34.974 0.557504 33.174 0.619494 31.7588 1.62327C31.2549 1.98133 30.8345 2.44427 30.5264 2.98026C30.2184 3.51625 30.0301 4.11259 29.9745 4.72827C29.5823 4.81417 29.2116 4.97818 28.8842 5.21052C28.5569 5.44286 28.2798 5.73876 28.0693 6.08057C27.679 6.70222 27.5299 7.44528 27.6501 8.16939H26.6752V9.08776ZM5.87695 8.8871L4.98476 7.99261L3.76562 9.2122L4.41537 9.86148L4.9843 9.2921L5.87649 10.1866L6.77098 9.2921L7.33853 9.86148L7.98874 9.2122L6.77144 7.99261L5.87695 8.8871ZM11.9947 5.64342L10.9229 4.56893L9.52425 5.96852L10.1735 6.61781L10.922 5.86888L11.9937 6.94291L13.0673 5.86842L13.8144 6.61689L14.4646 5.96944L13.0687 4.56985L11.9947 5.64342ZM6.67409 2.59352L5.38379 1.3L3.76562 2.91863L4.41491 3.56791L5.38333 2.59949L6.67364 3.89301L7.9667 2.59949L8.93236 3.56745L9.58256 2.91863L7.96716 1.3L6.67409 2.59352Z" fill="#007BFB"/>
</svg>
