<svg width="45" height="45" viewBox="0 0 45 45" fill="none" xmlns="http://www.w3.org/2000/svg">
<g clip-path="url(#clip0_1_652)">
<path d="M43.5458 36.4072L41.3407 31.1875L41.3398 31.1856L40.5283 29.265C40.3039 28.7319 39.927 28.277 39.4449 27.9573C38.9628 27.6376 38.3971 27.4675 37.8187 27.4682H37.0093L36.485 26.3841C37.0229 25.443 37.9093 25.0125 38.562 24.818C39.0299 24.6812 39.4405 24.3959 39.7319 24.0052C40.0234 23.6146 40.1798 23.1397 40.1777 22.6523C40.1777 22.5111 40.1216 22.3757 40.0218 22.2758C39.9219 22.176 39.7865 22.1199 39.6453 22.1199H36.1183C35.9771 22.1199 35.8417 22.176 35.7419 22.2758C35.642 22.3757 35.5859 22.5111 35.5859 22.6523C35.5859 22.7935 35.642 22.9289 35.7419 23.0287C35.8417 23.1286 35.9771 23.1847 36.1183 23.1847H38.9887C38.9156 23.3317 38.8129 23.4621 38.687 23.5675C38.5611 23.673 38.4148 23.7512 38.2572 23.7974C37.5584 24.0064 36.6486 24.4296 35.9524 25.2835L34.5677 22.4206L32.9631 19.1023C32.7524 18.6705 32.4249 18.3064 32.0178 18.0511C31.6108 17.7959 31.1404 17.6597 30.6599 17.658H26.1561V16.8797C26.1563 16.6997 26.2279 16.5271 26.3552 16.3999C26.4824 16.2726 26.655 16.201 26.835 16.2008H29.304C29.4376 16.2007 29.5683 16.24 29.6796 16.3138C29.7909 16.3876 29.878 16.4926 29.9299 16.6157C29.9568 16.6806 29.9963 16.7395 30.0461 16.789C30.0958 16.8386 30.1549 16.8778 30.2199 16.9044C30.2849 16.931 30.3545 16.9444 30.4247 16.944C30.495 16.9436 30.5644 16.9293 30.6291 16.902C30.6937 16.8746 30.7524 16.8347 30.8016 16.7846C30.8507 16.7345 30.8895 16.6751 30.9157 16.6099C30.9418 16.5448 30.9548 16.4751 30.9539 16.4048C30.953 16.3346 30.9383 16.2653 30.9104 16.2008C30.7772 15.8849 30.5538 15.6153 30.268 15.4259C29.9822 15.2365 29.6469 15.1356 29.304 15.136H28.602V10.5862C28.6002 10.4462 28.5433 10.3126 28.4436 10.2142C28.344 10.1159 28.2096 10.0607 28.0696 10.0607C27.9295 10.0607 27.7952 10.1159 27.6955 10.2142C27.5959 10.3126 27.539 10.4462 27.5371 10.5862V15.1359H26.8351C26.3727 15.1364 25.9293 15.3203 25.6024 15.6472C25.2754 15.9742 25.0915 16.4176 25.0911 16.88V17.6583H22.9537C22.4102 17.6593 21.8745 17.7875 21.3895 18.0329C20.9045 18.2782 20.4838 18.6337 20.161 19.071L17.9173 22.1203H15.6647C15.1998 22.1213 14.7398 22.2152 14.3118 22.3967C13.8838 22.5782 13.4964 22.8434 13.1724 23.1769L9.02133 27.4684H0.532151C0.409227 27.4685 0.290115 27.5111 0.195027 27.589C0.0999391 27.6669 0.0347328 27.7753 0.0104733 27.8958C-0.0137862 28.0163 0.00439534 28.1415 0.0619327 28.2501C0.11947 28.3587 0.212819 28.4441 0.326139 28.4917C4.21384 30.1233 7.19238 33.5433 8.62166 35.4367C9.02436 35.967 9.54398 36.3972 10.1401 36.6939C10.7362 36.9905 11.3927 37.1456 12.0585 37.1471H43.0554C43.1433 37.1472 43.2298 37.1255 43.3073 37.084C43.3848 37.0424 43.4507 36.9823 43.4993 36.9091C43.5479 36.8359 43.5776 36.7517 43.5857 36.6642C43.5938 36.5767 43.5802 36.4885 43.5459 36.4076L43.5458 36.4072ZM21.019 19.7015C21.2426 19.3986 21.5341 19.1523 21.8701 18.9824C22.2061 18.8124 22.5772 18.7235 22.9537 18.7228H30.6602C30.9406 18.7239 31.2152 18.8034 31.4528 18.9524C31.6904 19.1015 31.8815 19.314 32.0045 19.566L33.2399 22.1199H28.065V21.5053C28.0644 20.9908 27.8597 20.4974 27.4959 20.1336C27.132 19.7698 26.6387 19.5651 26.1241 19.5646H22.2402C22.1697 19.5636 22.0997 19.5767 22.0343 19.6031C21.9689 19.6294 21.9094 19.6685 21.8592 19.718C21.8091 19.7676 21.7692 19.8266 21.742 19.8916C21.7148 19.9567 21.7008 20.0265 21.7008 20.097C21.7008 20.1675 21.7148 20.2373 21.742 20.3024C21.7692 20.3674 21.8091 20.4264 21.8592 20.476C21.9094 20.5255 21.9689 20.5646 22.0343 20.5909C22.0997 20.6172 22.1697 20.6303 22.2402 20.6294H26.1241C26.3564 20.6297 26.579 20.722 26.7433 20.8862C26.9075 21.0504 26.9999 21.2731 27.0002 21.5053V22.1199H19.2398L21.019 19.7015ZM13.9385 23.9168C14.1629 23.6858 14.4313 23.502 14.7279 23.3762C15.0245 23.2505 15.3432 23.1854 15.6653 23.1847H33.755L35.8267 27.468H16.3327L16.8448 26.8958C17.1366 26.5697 17.4938 26.3089 17.8932 26.1302C18.2926 25.9515 18.7252 25.859 19.1628 25.8587H19.9721V26.4981C19.9712 26.5686 19.9843 26.6386 20.0106 26.704C20.037 26.7694 20.076 26.8289 20.1256 26.8791C20.1751 26.9293 20.2341 26.9691 20.2992 26.9963C20.3642 27.0235 20.434 27.0375 20.5045 27.0375C20.575 27.0375 20.6448 27.0235 20.7099 26.9963C20.775 26.9691 20.834 26.9293 20.8835 26.8791C20.933 26.8289 20.9721 26.7694 20.9984 26.704C21.0248 26.6386 21.0379 26.5686 21.037 26.4981V25.8587H24.0903V26.4981C24.0893 26.5686 24.1024 26.6386 24.1288 26.704C24.1551 26.7694 24.1942 26.8289 24.2437 26.8791C24.2932 26.9293 24.3522 26.9691 24.4173 26.9963C24.4824 27.0235 24.5522 27.0375 24.6227 27.0375C24.6932 27.0375 24.763 27.0235 24.828 26.9963C24.8931 26.9691 24.9521 26.9293 25.0016 26.8791C25.0512 26.8289 25.0902 26.7694 25.1166 26.704C25.1429 26.6386 25.156 26.5686 25.1551 26.4981V25.8587H28.2344V26.4981C28.2344 26.568 28.2481 26.6373 28.2749 26.7018C28.3017 26.7664 28.3409 26.8251 28.3903 26.8746C28.4397 26.924 28.4984 26.9632 28.563 26.99C28.6276 27.0167 28.6968 27.0305 28.7668 27.0305C28.8367 27.0305 28.9059 27.0167 28.9705 26.99C29.0351 26.9632 29.0938 26.924 29.1432 26.8746C29.1926 26.8251 29.2319 26.7664 29.2586 26.7018C29.2854 26.6373 29.2991 26.568 29.2991 26.4981V25.8587H32.3784V26.4981C32.3784 26.568 32.3922 26.6373 32.4189 26.7018C32.4457 26.7664 32.4849 26.8251 32.5343 26.8746C32.5838 26.924 32.6425 26.9632 32.7071 26.99C32.7716 27.0167 32.8409 27.0305 32.9108 27.0305C32.9807 27.0305 33.0499 27.0167 33.1145 26.99C33.1791 26.9632 33.2378 26.924 33.2872 26.8746C33.3367 26.8251 33.3759 26.7664 33.4026 26.7018C33.4294 26.6373 33.4432 26.568 33.4432 26.4981V25.8384C33.568 25.8052 33.6764 25.7278 33.7482 25.6205C33.82 25.5132 33.8503 25.3834 33.8334 25.2554C33.8165 25.1274 33.7536 25.01 33.6564 24.925C33.5591 24.84 33.4343 24.7934 33.3052 24.7938H19.1628C18.5754 24.7941 17.9947 24.9183 17.4586 25.1581C16.9224 25.3979 16.4428 25.7481 16.0511 26.1857L14.904 27.4683H10.5031L13.9385 23.9168ZM12.0585 36.082C11.5574 36.0809 11.0632 35.9642 10.6145 35.741C10.1658 35.5177 9.77464 35.1939 9.4715 34.7948C8.70787 33.7851 7.87838 32.8269 6.98846 31.9265H21.5965C21.667 31.9274 21.737 31.9143 21.8024 31.8879C21.8678 31.8616 21.9273 31.8225 21.9775 31.773C22.0277 31.7235 22.0675 31.6645 22.0947 31.5994C22.1219 31.5343 22.1359 31.4645 22.1359 31.394C22.1359 31.3235 22.1219 31.2537 22.0947 31.1887C22.0675 31.1236 22.0277 31.0646 21.9775 31.0151C21.9273 30.9655 21.8678 30.9265 21.8024 30.9001C21.737 30.8738 21.667 30.8607 21.5965 30.8616H5.87056C4.90478 29.9888 3.85879 29.2091 2.7465 28.5329H37.8187C38.1877 28.5324 38.5486 28.641 38.8562 28.8449C39.1638 29.0488 39.4042 29.3391 39.5474 29.6792L40.047 30.8613H27.698C27.5568 30.8613 27.4213 30.9174 27.3214 31.0173C27.2216 31.1172 27.1654 31.2526 27.1654 31.3939C27.1654 31.5351 27.2216 31.6706 27.3214 31.7705C27.4213 31.8703 27.5568 31.9265 27.698 31.9265H40.4965L42.2523 36.0823L12.0585 36.082Z" fill="#007BFB"/>
<path d="M25.1507 32.5438H24.4193C24.3488 32.5428 24.2788 32.5559 24.2134 32.5823C24.148 32.6086 24.0885 32.6477 24.0383 32.6972C23.9881 32.7468 23.9483 32.8058 23.9211 32.8708C23.8939 32.9359 23.8799 33.0057 23.8799 33.0762C23.8799 33.1467 23.8939 33.2165 23.9211 33.2816C23.9483 33.3466 23.9881 33.4056 24.0383 33.4552C24.0885 33.5047 24.148 33.5438 24.2134 33.5701C24.2788 33.5964 24.3488 33.6095 24.4193 33.6086H25.1504C25.2904 33.6068 25.4241 33.5499 25.5224 33.4502C25.6208 33.3506 25.6759 33.2162 25.6759 33.0762C25.6759 32.9362 25.6208 32.8018 25.5224 32.7021C25.4241 32.6025 25.2904 32.5456 25.1504 32.5438H25.1507ZM30.5157 16.0497C30.6569 16.0497 30.7923 15.9937 30.8922 15.8938C30.992 15.794 31.0481 15.6586 31.0481 15.5174V6.75742C31.0481 6.6875 31.0343 6.61827 31.0076 6.55368C30.9808 6.48909 30.9416 6.4304 30.8922 6.38097C30.8427 6.33153 30.7841 6.29232 30.7195 6.26556C30.6549 6.23881 30.5856 6.22504 30.5157 6.22504C30.4458 6.22504 30.3766 6.23881 30.312 6.26556C30.2474 6.29232 30.1887 6.33153 30.1393 6.38097C30.0898 6.4304 30.0506 6.48909 30.0239 6.55368C29.9971 6.61827 29.9834 6.6875 29.9834 6.75742V15.5174C29.9834 15.6586 30.0394 15.794 30.1393 15.8938C30.2391 15.9937 30.3745 16.0497 30.5157 16.0497Z" fill="#007BFB"/>
</g>
<defs>
<clipPath id="clip0_1_652">
<rect width="45" height="45" fill="white"/>
</clipPath>
</defs>
</svg>
