<svg width="45" height="45" viewBox="0 0 45 45" fill="none" xmlns="http://www.w3.org/2000/svg">
<g clip-path="url(#clip0_1_672)">
<path d="M14.6559 38.8465H16.0932V39.7649H14.6559V38.8465ZM4.49512 15.3735H5.34093V16.2919H4.49512V15.3735ZM33.6193 26.5937H32.7009C32.7009 26.9978 32.6018 27.3986 32.4139 27.7531L33.2249 28.1834C33.4839 27.6935 33.6195 27.1478 33.6198 26.5937H33.6193ZM34.3995 22.9836C34.2615 22.6699 34.1906 22.3308 34.1914 21.9881H33.2731C33.2731 22.4629 33.3695 22.9221 33.5587 23.3532L34.3995 22.9836Z" fill="#007BFB"/>
<path d="M44.3109 31.0041C44.3106 30.2853 44.0822 29.5852 43.6587 29.0044C43.2351 28.4237 42.6382 27.9923 41.9539 27.7724C42.6377 25.9728 41.6541 23.9139 39.7857 23.3358C39.9652 22.9225 40.0658 22.467 40.0658 21.988H40.0263C40.0327 21.557 39.958 21.1286 39.8059 20.7253C39.6366 20.2712 39.3714 19.859 39.0282 19.5168C38.6851 19.1746 38.2722 18.9105 37.8176 18.7425C38.2428 16.7336 36.7215 14.665 34.4913 14.665C32.616 14.665 31.0901 16.1886 31.0901 18.0611C31.0901 18.2925 31.1135 18.5208 31.1599 18.7425C29.3232 19.4208 28.4434 21.5426 29.2488 23.316C28.8041 23.4449 28.3909 23.6643 28.0351 23.9604C27.6793 24.2566 27.3885 24.6231 27.1811 25.037C26.7375 25.9118 26.6884 26.8972 27.025 27.7733C24.5431 28.5654 23.8694 31.7498 25.7319 33.4754C26.935 34.5903 28.8442 34.763 30.2043 33.6394C30.7958 34.1251 31.5361 34.3929 32.3014 34.3979C32.1077 37.3445 31.4336 40.3196 30.2902 43.2556H23.0645V41.1557H25.1014V37.4556H21.6135V36.5749H23.8451V33.8924H21.6135V33.4121H23.8451V30.7291H8.8771V33.4121H11.1087V33.8924H8.8771V36.5754H11.1087V37.4561H7.62169V41.1557H9.65817V43.2551H6.72031V25.2111H7.38567L9.4474 17.1377L7.82832 14.0804H2.57021L0.95113 17.1377L3.00827 25.2111H3.67822V43.2556H0.688477V44.174H29.9298L29.9293 44.1758H39.1143L39.1134 44.174H43.1001V43.2556H38.752C37.6078 40.3196 36.9337 37.3422 36.7404 34.3924C37.4819 34.3699 38.1956 34.1051 38.7723 33.6385C40.9658 35.4536 44.2806 33.8451 44.3091 31.0386C44.3091 31.0275 44.3109 31.017 44.3109 31.006V31.0046V31.0041ZM7.27501 14.9988L8.19521 16.7368H2.20286L2.43843 16.2914H4.1498V15.373H2.9247L3.12307 14.9988H7.27501ZM2.03113 17.6556H4.68521V20.3024H5.60358V17.6556H8.36695L6.67164 24.2927H5.60358V21.6101H4.68521V24.2927H3.7223L2.03113 17.6556ZM4.59613 43.2551V25.2138H5.80103V43.2551H4.59613ZM9.79455 31.647H22.9272V32.4932H9.79455V31.647ZM12.0262 33.4116H20.6951V33.8919H12.0271L12.0262 33.4116ZM9.79455 34.8103H22.9272V35.6566H9.79455V34.8103ZM12.0262 36.5749H20.6951V37.4556H12.0271L12.0262 36.5749ZM8.53914 40.2369V39.7644H13.7077V38.8461H8.5396V38.374H24.1831V40.2369H8.53914ZM10.5756 43.2551V41.1553H11.6983V43.2551H10.5756ZM12.6167 43.2551V41.1553H20.1051V43.2551H12.6167ZM21.0234 43.2551V41.1553H22.1457V43.2551H21.0234ZM30.203 32.3344L29.8668 32.6962C28.8704 33.7684 27.3115 33.6867 26.3555 32.8014C24.9485 31.4973 25.5473 29.0627 27.4929 28.6063C27.7705 28.984 28.1234 29.3001 28.5294 29.5346C28.9353 29.769 29.3855 29.9167 29.8515 29.9684C30.3174 30.02 30.789 29.9745 31.2365 29.8347C31.6839 29.6948 32.0975 29.4637 32.4511 29.1559L31.8478 28.463C31.3971 28.8553 30.8198 29.0714 30.2223 29.0714C28.3727 29.0714 27.1673 27.0946 27.9998 25.4517C28.1897 25.0727 28.4747 24.7495 28.8269 24.5137C29.1791 24.2779 29.5865 24.1375 30.0092 24.1063L30.8339 24.042L30.3435 23.3762C29.2864 21.9417 30.0817 19.8721 31.8225 19.5043L32.346 19.3932L32.1572 18.8927C32.0579 18.6266 32.0075 18.3447 32.0085 18.0606C32.0085 16.6946 33.122 15.5834 34.4908 15.5834C36.2628 15.5834 37.3952 17.365 36.8193 18.8931L36.6311 19.3937L37.1541 19.5039C37.9898 19.6806 38.6428 20.2436 38.9463 21.049C39.5464 22.6415 38.3746 23.6434 38.2667 23.8661C37.8341 24.2348 37.2804 24.4658 36.6687 24.4658C36.3407 24.4668 36.0158 24.4022 35.7132 24.2758C35.4105 24.1494 35.1362 23.9637 34.9064 23.7297L34.253 24.3753C34.568 24.696 34.944 24.9504 35.3588 25.1236C35.7735 25.2969 36.2188 25.3855 36.6683 25.3842C37.7198 25.3842 38.6611 24.9039 39.2852 24.1513C40.941 24.4956 41.7785 26.4045 40.8946 27.8555L40.5245 28.463L41.2303 28.5502C42.4622 28.7018 43.3916 29.757 43.3921 31.0046C43.3912 33.1526 40.8142 34.2919 39.2273 32.8092C39.1942 32.7775 39.1607 32.7486 39.1281 32.7141C38.6844 32.2552 38.436 31.642 38.4352 31.0037H37.5168C37.5168 31.7333 37.7506 32.4078 38.1432 32.9621C37.7124 33.3009 37.18 33.4845 36.632 33.4832C36.2929 33.4848 35.9573 33.4156 35.6465 33.2801C35.3357 33.1445 35.0566 32.9457 34.8269 32.6962L34.4908 32.3344L34.1542 32.6962C33.2028 33.7202 31.5369 33.7702 30.5395 32.6962L30.203 32.3344ZM35.04 43.2551V41.1383H34.1216V43.2551H31.2793C32.4025 40.2778 33.055 37.26 33.2317 34.2703C33.69 34.1454 34.1226 33.9378 34.4917 33.6366C34.8775 33.9516 35.332 34.1661 35.8128 34.2873C35.9905 37.2733 36.6426 40.2847 37.7643 43.2551H35.04Z" fill="#007BFB"/>
<path d="M34.1215 38.786H35.0399V40.153H34.1215V38.786ZM16.1252 15.5756C16.1252 17.084 17.3526 18.3114 18.861 18.3114C20.3694 18.3114 21.5968 17.084 21.5968 15.5756C21.5968 14.0672 20.3694 12.8402 18.861 12.8402C17.3526 12.8402 16.1252 14.0672 16.1252 15.5756ZM18.861 13.7582C19.3429 13.7586 19.8049 13.9503 20.1456 14.291C20.4863 14.6317 20.678 15.0937 20.6784 15.5756C20.678 16.0575 20.4863 16.5195 20.1456 16.8602C19.8049 17.2009 19.3429 17.3926 18.861 17.3931C18.3791 17.3926 17.9171 17.2009 17.5764 16.8602C17.2357 16.5195 17.044 16.0575 17.0435 15.5756C17.044 15.0937 17.2357 14.6317 17.5764 14.291C17.9171 13.9503 18.3791 13.7586 18.861 13.7582ZM18.4018 9.53688H19.3202V11.611H18.4018V9.53688ZM15.7349 13.0992L14.2682 11.6331L14.9175 10.9838L16.3842 12.4499L15.7349 13.0992ZM12.8223 15.1164H14.8964V16.0348H12.8223V15.1164ZM14.9152 20.1739L14.2659 19.5246L15.7321 18.058L16.3814 18.7072L14.9152 20.1739ZM18.4018 19.5402H19.3202V21.6143H18.4018V19.5402ZM22.8072 20.1748L21.3406 18.7082L21.9899 18.0589L23.4565 19.5255L22.8072 20.1748ZM22.826 15.1164H24.9002V16.0348H22.826V15.1164ZM21.9903 13.1001L21.341 12.4509L22.8072 10.9842L23.4565 11.6335L21.9903 13.1001ZM31.5886 8.16943H34.223V9.0878H31.5886V8.16943Z" fill="#007BFB"/>
<path d="M26.1752 9.08776H30.5696V8.16939H28.0859C28.0207 7.89807 28.0104 7.61646 28.0556 7.34109C28.1007 7.06573 28.2005 6.80218 28.349 6.56592C28.5205 6.28734 28.7552 6.05315 29.0343 5.8824C29.3133 5.71165 29.6287 5.60916 29.9548 5.58327L30.3781 5.54791L30.3763 5.12317C30.3744 4.58494 30.502 4.05414 30.7481 3.57548C30.9942 3.09681 31.3517 2.68429 31.7906 2.37266C32.9013 1.58424 34.3147 1.53557 35.4792 2.24546C36.6474 2.9572 37.2544 4.23189 37.0643 5.57179L36.8747 6.93235L37.8472 5.9598C38.8005 5.28526 39.8088 5.57684 40.3824 6.03143C40.9003 6.44148 41.3618 7.22853 41.1184 8.16939H35.2161V9.08776H42.6838V8.16939H42.0565C42.2476 7.09766 41.8531 6.02409 40.9527 5.31143C40.0853 4.62449 38.9984 4.46194 38.0107 4.84077C37.9331 3.46092 37.191 2.21332 35.9572 1.46118C34.474 0.557504 32.674 0.619494 31.2588 1.62327C30.7549 1.98133 30.3345 2.44427 30.0264 2.98026C29.7184 3.51625 29.5301 4.11259 29.4745 4.72827C29.0823 4.81417 28.7116 4.97818 28.3842 5.21052C28.0569 5.44286 27.7798 5.73876 27.5693 6.08057C27.179 6.70222 27.0299 7.44528 27.1501 8.16939H26.1752V9.08776ZM5.37695 8.8871L4.48476 7.99261L3.26562 9.2122L3.91537 9.86148L4.4843 9.2921L5.37649 10.1866L6.27098 9.2921L6.83853 9.86148L7.48874 9.2122L6.27144 7.99261L5.37695 8.8871ZM11.4947 5.64342L10.4229 4.56893L9.02425 5.96852L9.67353 6.61781L10.422 5.86888L11.4937 6.94291L12.5673 5.86842L13.3144 6.61689L13.9646 5.96944L12.5687 4.56985L11.4947 5.64342ZM6.17409 2.59352L4.88379 1.3L3.26562 2.91863L3.91491 3.56791L4.88333 2.59949L6.17364 3.89301L7.4667 2.59949L8.43236 3.56745L9.08256 2.91863L7.46716 1.3L6.17409 2.59352Z" fill="#007BFB"/>
</g>
<defs>
<clipPath id="clip0_1_672">
<rect width="45" height="45" fill="white"/>
</clipPath>
</defs>
</svg>
