<svg width="45" height="45" viewBox="0 0 45 45" fill="none" xmlns="http://www.w3.org/2000/svg">
<g clip-path="url(#clip0_1_666)">
<path d="M40.6936 33.675C39.1649 33.675 37.8195 34.4756 37.055 35.6797C36.2906 34.4757 34.9452 33.675 33.4165 33.675C31.8877 33.675 30.5423 34.4756 29.7779 35.6797C29.0133 34.4756 27.668 33.675 26.1392 33.675C24.7408 33.675 23.4974 34.3462 22.7101 35.3819L15.9437 18.0641L29.0033 12.9613C29.1683 12.8968 29.301 12.7693 29.3722 12.607C29.4433 12.4446 29.447 12.2607 29.3825 12.0956C28.11 8.83873 25.3394 6.43511 21.581 5.32748C21.4968 5.30265 21.4086 5.29465 21.3213 5.30394C21.234 5.31322 21.1494 5.33961 21.0724 5.3816C20.9953 5.42359 20.9272 5.48035 20.8721 5.54865C20.817 5.61694 20.7758 5.69543 20.7511 5.77962C20.701 5.94964 20.7204 6.13259 20.8052 6.28824C20.89 6.44389 21.0332 6.55948 21.2032 6.60958C24.312 7.5258 26.6554 9.41571 27.8719 11.9683L21.4118 14.4925C20.2237 11.6923 18.5526 9.29105 16.6626 7.68254C15.9354 7.06377 15.2029 6.58526 14.4806 6.25056C16.1266 5.98021 17.7778 5.96078 19.3721 6.20396C19.5473 6.23068 19.726 6.18669 19.8688 6.08168C20.0116 5.97666 20.1068 5.81923 20.1335 5.644C20.1602 5.46877 20.1163 5.29011 20.0112 5.14731C19.9062 5.00451 19.7488 4.90928 19.5736 4.88256C16.8169 4.46241 13.9106 4.75817 11.1268 5.73542L10.436 3.9675C10.404 3.88576 10.3563 3.81111 10.2955 3.74782C10.2347 3.68452 10.1621 3.63382 10.0817 3.59861C10.0013 3.56341 9.91475 3.54438 9.82701 3.54262C9.73926 3.54085 9.65203 3.55639 9.57029 3.58835C9.48855 3.62029 9.4139 3.66802 9.35061 3.72881C9.28731 3.7896 9.23661 3.86227 9.20141 3.94266C9.1662 4.02305 9.14717 4.10958 9.14541 4.19733C9.14364 4.28507 9.15918 4.3723 9.19114 4.45404L9.88182 6.22151C6.36638 7.73815 3.4969 10.2285 1.75696 13.2891C-0.109964 16.5731 -0.459182 20.1192 0.773551 23.2741C0.805493 23.3559 0.853225 23.4305 0.914023 23.4938C0.974821 23.5571 1.04749 23.6078 1.12789 23.6431C1.20829 23.6783 1.29483 23.6973 1.38259 23.6991C1.47034 23.7008 1.55758 23.6853 1.63933 23.6534L14.6988 18.5505L20.7864 34.1309C20.1894 33.8307 19.5304 33.6745 18.8622 33.6749C17.3335 33.6749 15.9882 34.4755 15.2236 35.6796C14.4591 34.4756 13.1138 33.6749 11.585 33.6749C10.0563 33.6749 8.71102 34.4755 7.94646 35.6796C7.18191 34.4756 5.83663 33.6749 4.30788 33.6749C1.93304 33.6749 0.000976562 35.607 0.000976562 37.9818C0.000976565 38.159 0.0713883 38.329 0.196722 38.4544C0.322056 38.5797 0.492045 38.6501 0.669293 38.6501C0.846542 38.6501 1.01653 38.5797 1.14186 38.4544C1.2672 38.329 1.33761 38.159 1.33761 37.9818C1.33761 36.344 2.67006 35.0115 4.30788 35.0115C5.9457 35.0115 7.27815 36.344 7.27815 37.9818C7.27815 38.159 7.34856 38.329 7.47389 38.4544C7.59922 38.5797 7.76921 38.6501 7.94646 38.6501C8.12371 38.6501 8.2937 38.5797 8.41903 38.4544C8.54437 38.329 8.61478 38.159 8.61478 37.9818C8.61478 36.344 9.94722 35.0115 11.585 35.0115C13.2229 35.0115 14.5553 36.344 14.5553 37.9818C14.5553 38.159 14.6257 38.329 14.7511 38.4544C14.8764 38.5797 15.0464 38.6501 15.2236 38.6501C15.4009 38.6501 15.5709 38.5797 15.6962 38.4544C15.8215 38.329 15.8919 38.159 15.8919 37.9818C15.8919 36.344 17.2244 35.0115 18.8622 35.0115C20.5 35.0115 21.8325 36.344 21.8325 37.9818C21.8325 38.159 21.9029 38.329 22.0282 38.4544C22.1536 38.5797 22.3236 38.6501 22.5008 38.6501C22.678 38.6501 22.848 38.5797 22.9734 38.4544C23.0987 38.329 23.1691 38.159 23.1691 37.9818C23.1691 36.344 24.5016 35.0115 26.1394 35.0115C27.7773 35.0115 29.1097 36.344 29.1097 37.9818C29.1097 38.3509 29.4089 38.6501 29.7781 38.6501C30.1472 38.6501 30.4464 38.3509 30.4464 37.9818C30.4464 36.344 31.7788 35.0115 33.4166 35.0115C35.0545 35.0115 36.3869 36.344 36.3869 37.9818C36.3869 38.3509 36.686 38.6501 37.0552 38.6501C37.4244 38.6501 37.7235 38.3509 37.7235 37.9818C37.7235 36.344 39.056 35.0115 40.6938 35.0115C42.3316 35.0115 43.6639 36.3441 43.6639 37.9819C43.6639 38.351 43.963 38.6502 44.3322 38.6502C44.7014 38.6502 45.0005 38.351 45.0005 37.9819C45.0005 35.607 43.0686 33.675 40.6936 33.675ZM12.0758 7.01218C13.2058 7.01218 14.4897 7.58853 15.7962 8.70043C17.5232 10.1702 19.0603 12.3828 20.1665 14.979L9.50311 19.1456C8.55623 16.4871 8.18599 13.8187 8.45902 11.5674C8.73552 9.28748 9.63294 7.74064 10.9859 7.21205C11.3282 7.07821 11.693 7.01218 12.0758 7.01218ZM2.91885 13.9498C4.05597 11.9494 5.72587 10.2123 7.76646 8.87126C7.46171 9.60765 7.24722 10.4572 7.1321 11.4065C6.83322 13.8702 7.23315 16.7683 8.25817 19.6321L1.79795 22.1564C0.990977 19.5445 1.38012 16.6565 2.91885 13.9498Z" fill="#007BFB"/>
<path d="M38.0938 23.9546C36.3569 23.9546 35.4465 24.4747 34.6432 24.9337C33.8891 25.3646 33.2379 25.7368 31.8558 25.7368C30.4738 25.7368 29.8226 25.3647 29.0685 24.9337C28.2653 24.4747 27.355 23.9546 25.6181 23.9546C23.8812 23.9546 22.9709 24.4747 22.1678 24.9337C21.5718 25.2742 21.0572 25.5684 20.1979 25.6853C20.1109 25.6971 20.0271 25.726 19.9513 25.7702C19.8755 25.8144 19.8091 25.8731 19.756 25.943C19.7029 26.0128 19.6641 26.0925 19.6417 26.1773C19.6194 26.2622 19.614 26.3507 19.6258 26.4376C19.6376 26.5246 19.6664 26.6084 19.7106 26.6842C19.7548 26.7601 19.8135 26.8264 19.8834 26.8796C19.9533 26.9327 20.0329 26.9715 20.1178 26.9939C20.2027 27.0162 20.2912 27.0216 20.3781 27.0097C21.4949 26.8578 22.2048 26.4521 22.8309 26.0943C23.585 25.6634 24.2363 25.2912 25.6181 25.2912C26.9999 25.2912 27.6512 25.6634 28.4053 26.0943C29.2085 26.5532 30.1188 27.0734 31.8558 27.0734C33.5928 27.0734 34.5032 26.5533 35.3064 26.0943C36.0605 25.6634 36.7117 25.2912 38.0938 25.2912C39.4759 25.2912 40.1271 25.6634 40.8812 26.0943C41.6844 26.5533 42.5948 27.0734 44.3318 27.0734C44.701 27.0734 45.0001 26.7742 45.0001 26.4051C45.0001 26.036 44.701 25.7368 44.3318 25.7368C42.9497 25.7368 42.2985 25.3647 41.5444 24.9337C40.7411 24.4748 39.8307 23.9546 38.0938 23.9546ZM16.5935 24.9338C15.7904 24.4749 14.88 23.9547 13.1433 23.9547C11.4065 23.9547 10.4961 24.4749 9.693 24.9338C8.93896 25.3647 8.28775 25.7369 6.90585 25.7369C5.52395 25.7369 4.87274 25.3647 4.1187 24.9338C3.31556 24.4749 2.40523 23.9547 0.668317 23.9547C0.491068 23.9547 0.321079 24.0251 0.195745 24.1504C0.0704117 24.2758 0 24.4458 0 24.623C0 24.8003 0.0704117 24.9702 0.195745 25.0956C0.321079 25.2209 0.491068 25.2913 0.668317 25.2913C2.05022 25.2913 2.70143 25.6634 3.45547 26.0944C4.2586 26.5533 5.16894 27.0735 6.90585 27.0735C8.64267 27.0735 9.55301 26.5533 10.3561 26.0944C11.1102 25.6635 11.7614 25.2913 13.1433 25.2913C14.5251 25.2913 15.1763 25.6634 15.9304 26.0944C16.0843 26.1823 16.2668 26.2055 16.4378 26.1589C16.6088 26.1122 16.7543 25.9996 16.8422 25.8457C16.9301 25.6918 16.9533 25.5092 16.9067 25.3382C16.8601 25.1672 16.7474 25.0218 16.5935 24.9338ZM44.3317 30.3704C42.9496 30.3704 42.2984 29.9983 41.5443 29.5674C40.741 29.1085 39.8307 28.5883 38.0937 28.5883C36.3567 28.5883 35.4464 29.1085 34.6431 29.5674C33.889 29.9982 33.2378 30.3704 31.8557 30.3704C30.4737 30.3704 29.8225 29.9983 29.0684 29.5674C28.2653 29.1084 27.3549 28.5883 25.618 28.5883C23.8811 28.5883 22.9709 29.1084 22.1677 29.5674C22.0453 29.6373 21.9228 29.7074 21.7971 29.7755C21.7199 29.8173 21.6518 29.8739 21.5965 29.942C21.5412 30.0102 21.4999 30.0886 21.4749 30.1727C21.4499 30.2568 21.4417 30.3451 21.4508 30.4324C21.46 30.5196 21.4862 30.6043 21.528 30.6814C21.5698 30.7586 21.6264 30.8268 21.6946 30.8821C21.7627 30.9374 21.8411 30.9787 21.9252 31.0037C22.0094 31.0287 22.0976 31.0368 22.1849 31.0277C22.2722 31.0186 22.3568 30.9924 22.434 30.9505C22.5685 30.8777 22.6996 30.8027 22.8308 30.7278C23.5848 30.2969 24.2361 29.9248 25.6179 29.9248C26.9997 29.9248 27.651 30.2969 28.4052 30.7279C29.2083 31.1868 30.1186 31.707 31.8556 31.707C33.5926 31.707 34.503 31.1868 35.3062 30.7279C36.0603 30.297 36.7115 29.9248 38.0936 29.9248C39.4757 29.9248 40.1269 30.2969 40.881 30.7279C41.6843 31.1868 42.5946 31.707 44.3316 31.707C44.5075 31.705 44.6755 31.6337 44.7992 31.5086C44.9229 31.3835 44.9922 31.2147 44.9922 31.0388C44.9923 30.8628 44.9229 30.694 44.7992 30.5689C44.6756 30.4438 44.5076 30.3725 44.3317 30.3704ZM13.1433 28.5883C11.4065 28.5883 10.4961 29.1085 9.693 29.5674C9.32035 29.7804 8.96828 29.9815 8.54082 30.1281C8.37387 30.1861 8.2367 30.3079 8.15934 30.4669C8.08199 30.6258 8.07075 30.8089 8.12807 30.9761C8.1854 31.1433 8.30663 31.281 8.46524 31.359C8.62384 31.437 8.80689 31.4491 8.97434 31.3924C9.52147 31.2049 9.9458 30.9623 10.3561 30.7279C11.1102 30.297 11.7614 29.9248 13.1433 29.9248C14.5251 29.9248 15.1763 30.2969 15.9304 30.7279C16.5281 31.0694 17.2056 31.4566 18.2395 31.6221C18.4146 31.6501 18.5935 31.6074 18.7371 31.5034C18.8806 31.3994 18.977 31.2427 19.005 31.0677C19.033 30.8926 18.9903 30.7137 18.8864 30.5701C18.7824 30.4266 18.6257 30.3302 18.4506 30.3022C17.6572 30.1752 17.1642 29.8935 16.5935 29.5673C15.7904 29.1085 14.8801 28.5883 13.1433 28.5883ZM0.668317 29.9249C2.05022 29.9249 2.70143 30.297 3.45547 30.7279C4.2586 31.1869 5.16894 31.7071 6.90585 31.7071C7.0831 31.7071 7.25309 31.6367 7.37842 31.5113C7.50376 31.386 7.57417 31.216 7.57417 31.0388C7.57417 30.8615 7.50376 30.6915 7.37842 30.5662C7.25309 30.4409 7.0831 30.3704 6.90585 30.3704C5.52395 30.3704 4.87274 29.9983 4.1187 29.5674C3.31556 29.1085 2.40523 28.5883 0.668317 28.5883C0.491068 28.5883 0.321079 28.6587 0.195745 28.784C0.0704117 28.9093 0 29.0793 0 29.2566C0 29.4338 0.0704117 29.6038 0.195745 29.7292C0.321079 29.8545 0.491068 29.9249 0.668317 29.9249ZM36.6686 11.9249C38.6094 11.9249 40.1884 10.3459 40.1884 8.40509C40.1884 6.4643 38.6094 4.88529 36.6686 4.88529C34.7278 4.88529 33.1488 6.4643 33.1488 8.40509C33.1488 10.3459 34.7278 11.9249 36.6686 11.9249ZM36.6686 6.22192C37.8724 6.22192 38.8518 7.20132 38.8518 8.40509C38.8518 9.60887 37.8724 10.5883 36.6686 10.5883C35.4647 10.5883 34.4854 9.60887 34.4854 8.40509C34.4854 7.20132 35.4648 6.22192 36.6686 6.22192ZM36.6686 4.29272C36.8458 4.29272 37.0158 4.2223 37.1412 4.09697C37.2665 3.97164 37.3369 3.80165 37.3369 3.6244V2.39024C37.3369 2.02115 37.0378 1.72192 36.6686 1.72192C36.2994 1.72192 36.0003 2.02115 36.0003 2.39024V3.6244C36.0003 3.80165 36.0707 3.97164 36.196 4.09697C36.3214 4.2223 36.4913 4.29272 36.6686 4.29272ZM37.3369 14.4199V13.1858C37.3369 12.8167 37.0378 12.5175 36.6686 12.5175C36.2994 12.5175 36.0003 12.8167 36.0003 13.1858V14.4199C36.0003 14.789 36.2994 15.0883 36.6686 15.0883C37.0378 15.0883 37.3369 14.7891 37.3369 14.4199ZM40.0491 5.69297C40.1369 5.69309 40.2239 5.67585 40.305 5.64225C40.3861 5.60865 40.4597 5.55936 40.5217 5.4972L41.3944 4.62456C41.4565 4.56251 41.5057 4.48883 41.5393 4.40775C41.5729 4.32667 41.5901 4.23976 41.5901 4.15199C41.5901 4.06423 41.5728 3.97733 41.5392 3.89625C41.5056 3.81517 41.4564 3.74151 41.3943 3.67947C41.3323 3.6174 41.2586 3.56816 41.1775 3.53456C41.0964 3.50097 41.0095 3.48368 40.9218 3.48368C40.834 3.48368 40.7471 3.50097 40.666 3.53456C40.5849 3.56816 40.5113 3.6174 40.4492 3.67947L39.5766 4.55211C39.5145 4.61416 39.4653 4.68784 39.4317 4.76892C39.3981 4.85 39.3808 4.93691 39.3808 5.02468C39.3808 5.11244 39.3981 5.19934 39.4317 5.28042C39.4653 5.3615 39.5146 5.43516 39.5767 5.4972C39.6386 5.55937 39.7122 5.60867 39.7933 5.64227C39.8744 5.67587 39.9613 5.6931 40.0491 5.69297ZM32.4155 13.3266C32.5033 13.3267 32.5902 13.3095 32.6714 13.2759C32.7525 13.2423 32.8261 13.193 32.8881 13.1308L33.7608 12.2582C33.8228 12.1961 33.8721 12.1224 33.9057 12.0414C33.9393 11.9603 33.9565 11.8734 33.9565 11.7856C33.9565 11.6978 33.9392 11.6109 33.9056 11.5299C33.872 11.4488 33.8228 11.3751 33.7607 11.3131C33.6986 11.251 33.625 11.2018 33.5439 11.1682C33.4628 11.1346 33.3759 11.1173 33.2881 11.1173C33.2004 11.1173 33.1135 11.1346 33.0324 11.1682C32.9513 11.2018 32.8777 11.251 32.8156 11.3131L31.943 12.1857C31.8809 12.2478 31.8317 12.3214 31.7981 12.4025C31.7645 12.4836 31.7472 12.5705 31.7472 12.6583C31.7472 12.746 31.7645 12.8329 31.7981 12.914C31.8317 12.9951 31.881 13.0688 31.943 13.1308C32.005 13.193 32.0786 13.2423 32.1597 13.2759C32.2408 13.3095 32.3277 13.3267 32.4155 13.3266ZM40.7811 8.40509C40.7811 8.58234 40.8515 8.75233 40.9768 8.87767C41.1021 9.003 41.2721 9.07341 41.4494 9.07341H42.6835C43.0527 9.07341 43.3518 8.77418 43.3518 8.40509C43.3518 8.036 43.0527 7.73678 42.6835 7.73678H41.4494C41.2721 7.73678 41.1021 7.80719 40.9768 7.93252C40.8515 8.05786 40.7811 8.22784 40.7811 8.40509ZM30.6537 9.07341H31.8879C32.2571 9.07341 32.5562 8.77418 32.5562 8.40509C32.5562 8.036 32.2571 7.73678 31.8879 7.73678H30.6537C30.4765 7.73678 30.3065 7.80719 30.1812 7.93252C30.0558 8.05786 29.9854 8.22784 29.9854 8.40509C29.9854 8.58234 30.0558 8.75233 30.1812 8.87767C30.3065 9.003 30.4765 9.07341 30.6537 9.07341ZM40.9218 13.3266C41.0095 13.3267 41.0965 13.3095 41.1776 13.2759C41.2587 13.2423 41.3323 13.193 41.3943 13.1308C41.4564 13.0688 41.5056 12.9951 41.5392 12.914C41.5728 12.8329 41.5901 12.746 41.5901 12.6583C41.5901 12.5705 41.5729 12.4836 41.5393 12.4025C41.5057 12.3214 41.4565 12.2478 41.3944 12.1857L40.5217 11.3131C40.4597 11.251 40.386 11.2018 40.305 11.1682C40.2239 11.1346 40.137 11.1173 40.0492 11.1173C39.9614 11.1173 39.8745 11.1346 39.7934 11.1682C39.7124 11.2018 39.6387 11.251 39.5767 11.3131C39.5146 11.3751 39.4653 11.4488 39.4317 11.5299C39.3981 11.6109 39.3808 11.6978 39.3808 11.7856C39.3808 11.8734 39.3981 11.9603 39.4317 12.0414C39.4653 12.1224 39.5145 12.1961 39.5766 12.2582L40.4492 13.1308C40.5112 13.193 40.5848 13.2423 40.6659 13.2759C40.747 13.3095 40.834 13.3267 40.9218 13.3266ZM32.8155 5.4972C32.8775 5.55937 32.9512 5.60867 33.0323 5.64226C33.1134 5.67586 33.2004 5.6931 33.2881 5.69297C33.3759 5.69309 33.4629 5.67586 33.544 5.64226C33.6251 5.60866 33.6987 5.55937 33.7607 5.4972C33.8228 5.43516 33.872 5.3615 33.9056 5.28042C33.9392 5.19934 33.9565 5.11244 33.9565 5.02468C33.9565 4.93691 33.9393 4.85 33.9057 4.76892C33.8721 4.68784 33.8228 4.61416 33.7608 4.55211L32.8881 3.67947C32.8261 3.6174 32.7524 3.56816 32.6713 3.53456C32.5903 3.50097 32.5034 3.48368 32.4156 3.48368C32.3278 3.48368 32.2409 3.50097 32.1598 3.53456C32.0788 3.56816 32.0051 3.6174 31.943 3.67947C31.881 3.74151 31.8317 3.81517 31.7981 3.89625C31.7645 3.97733 31.7472 4.06423 31.7472 4.15199C31.7472 4.23976 31.7645 4.32667 31.7981 4.40775C31.8317 4.48883 31.8809 4.56251 31.943 4.62456L32.8155 5.4972ZM42.0295 41.8C41.8013 41.6462 41.4931 41.6536 41.2698 41.8125C41.034 41.9803 40.9347 42.2907 41.0246 42.565C41.1088 42.822 41.3475 43.0055 41.6171 43.0228C41.9087 43.0416 42.1852 42.8587 42.2857 42.5855C42.3906 42.3004 42.2838 41.9678 42.0295 41.8ZM20.915 39.1597C20.8085 38.9017 20.5443 38.7341 20.2652 38.7477C19.9742 38.7617 19.7213 38.9709 19.6499 39.2526C19.4996 39.8453 20.1957 40.3117 20.6907 39.9557C20.9377 39.7781 21.0335 39.4402 20.915 39.1597ZM39.6021 41.3616C39.4932 41.1044 39.2326 40.9355 38.9518 40.9498C38.6723 40.9642 38.4275 41.1557 38.3457 41.4229C38.1676 42.0041 38.83 42.5041 39.3421 42.1812C39.6122 42.0109 39.7265 41.657 39.6021 41.3616ZM4.32472 42.3559C4.21245 42.0901 3.93585 41.9187 3.64678 41.9462C3.5147 41.9592 3.38936 42.0108 3.28644 42.0946C3.18352 42.1784 3.10757 42.2906 3.06811 42.4173C2.98729 42.6783 3.08192 42.9717 3.29712 43.139C3.52292 43.3146 3.8397 43.3238 4.07789 43.1668C4.34272 42.9925 4.44146 42.6475 4.32472 42.3559ZM20.0266 37.3873C20.189 37.1407 20.1711 36.807 19.9787 36.5821C19.8056 36.3799 19.5201 36.2993 19.2669 36.3806C18.9982 36.4668 18.8097 36.7177 18.8027 37.0001C18.7957 37.2785 18.9689 37.5377 19.2278 37.6388C19.5186 37.7524 19.8518 37.6437 20.0266 37.3873ZM41.124 40.3751C41.7211 40.3751 42.0167 39.6123 41.5728 39.2112C41.3567 39.0161 41.0306 38.984 40.7807 39.1333C40.536 39.2796 40.4098 39.5747 40.4726 39.8528C40.5404 40.1535 40.8146 40.3751 41.124 40.3751Z" fill="#007BFB"/>
</g>
<defs>
<clipPath id="clip0_1_666">
<rect width="45" height="45" fill="white"/>
</clipPath>
</defs>
</svg>
