<svg width="25" height="25" viewBox="0 0 25 25" fill="none" xmlns="http://www.w3.org/2000/svg">
<g clip-path="url(#clip0_1_620)">
<path d="M12.5 25C19.4036 25 25 19.4036 25 12.5C25 5.59644 19.4036 0 12.5 0C5.59644 0 0 5.59644 0 12.5C0 19.4036 5.59644 25 12.5 25Z" fill="#F0F0F0"/>
<path d="M2.58397 4.88989C1.60209 6.16738 0.861707 7.63979 0.430603 9.23935H6.93343L2.58397 4.88989Z" fill="#0052B4"/>
<path d="M24.5694 9.23931C24.1383 7.63979 23.3979 6.16738 22.416 4.88989L18.0667 9.23931H24.5694Z" fill="#0052B4"/>
<path d="M0.430603 15.761C0.861755 17.3605 1.60214 18.8329 2.58397 20.1104L6.93329 15.761H0.430603Z" fill="#0052B4"/>
<path d="M20.1102 2.58408C18.8327 1.6022 17.3604 0.861816 15.7608 0.430664V6.93345L20.1102 2.58408Z" fill="#0052B4"/>
<path d="M4.88971 22.416C6.1672 23.3979 7.63961 24.1382 9.23912 24.5694V18.0667L4.88971 22.416Z" fill="#0052B4"/>
<path d="M9.23907 0.430664C7.63956 0.861816 6.16715 1.6022 4.88971 2.58403L9.23907 6.9334V0.430664Z" fill="#0052B4"/>
<path d="M15.7609 24.5694C17.3604 24.1382 18.8328 23.3979 20.1102 22.416L15.7609 18.0667V24.5694Z" fill="#0052B4"/>
<path d="M18.0667 15.761L22.416 20.1104C23.3979 18.833 24.1383 17.3605 24.5694 15.761H18.0667Z" fill="#0052B4"/>
<path d="M24.8942 10.8696H14.1305H14.1305V0.105811C13.5967 0.0363281 13.0526 0 12.5 0C11.9473 0 11.4033 0.0363281 10.8696 0.105811V10.8695V10.8695H0.105811C0.0363281 11.4033 0 11.9474 0 12.5C0 13.0527 0.0363281 13.5967 0.105811 14.1304H10.8695H10.8695V24.8942C11.4033 24.9637 11.9473 25 12.5 25C13.0526 25 13.5967 24.9637 14.1304 24.8942V14.1305V14.1305H24.8942C24.9637 13.5967 25 13.0527 25 12.5C25 11.9474 24.9637 11.4033 24.8942 10.8696V10.8696Z" fill="#D80027"/>
<path d="M15.7609 15.761L21.3388 21.339C21.5953 21.0825 21.8401 20.8144 22.0736 20.5365L17.2981 15.761H15.7609V15.761Z" fill="#D80027"/>
<path d="M9.23911 15.761H9.23901L3.66113 21.3389C3.91758 21.5954 4.18569 21.8401 4.46362 22.0736L9.23911 17.298V15.761Z" fill="#D80027"/>
<path d="M9.23909 9.23921V9.23911L3.66116 3.66113C3.40461 3.91758 3.15989 4.18569 2.92639 4.46362L7.70193 9.23916H9.23909V9.23921Z" fill="#D80027"/>
<path d="M15.7609 9.23926L21.3388 3.66123C21.0824 3.40469 20.8143 3.15996 20.5364 2.92651L15.7609 7.70205V9.23926Z" fill="#D80027"/>
</g>
<defs>
<clipPath id="clip0_1_620">
<rect width="25" height="25" fill="white"/>
</clipPath>
</defs>
</svg>
