<svg width="60" height="60" viewBox="0 0 60 60" fill="none" xmlns="http://www.w3.org/2000/svg">
<path fill-rule="evenodd" clip-rule="evenodd" d="M26.674 24.6777C27.7365 26.2728 28.8314 26.8628 29.698 26.8628C30.4415 26.8628 31.4951 26.3152 32.5642 24.6887C33.59 23.1277 34.3472 20.9559 34.5875 18.7444C34.8301 16.51 34.518 14.5129 33.728 13.162C33.0195 11.9505 31.8399 11.0815 29.698 11.0815C27.5528 11.0815 26.3419 11.9549 25.6059 13.182C24.7918 14.5396 24.4548 16.5382 24.6766 18.7629C24.8963 20.9677 25.6414 23.1276 26.674 24.6777ZM21.9879 11.0123C23.5009 8.48945 26.0994 6.86279 29.698 6.86279C33.2999 6.86279 35.8852 8.49381 37.3697 11.0323C38.7727 13.4315 39.0819 16.4343 38.7816 19.1999C38.4787 21.9884 37.5283 24.8167 36.0896 27.0057C34.6941 29.1292 32.526 31.0815 29.698 31.0815C26.8146 31.0815 24.5985 29.1716 23.163 27.0166C21.6975 24.8167 20.7573 21.9767 20.4787 19.1814C20.202 16.4062 20.5533 13.4048 21.9879 11.0123Z" fill="#007BFB"/>
<path fill-rule="evenodd" clip-rule="evenodd" d="M35.987 31.6697L48.8955 37.0748V46.8069C48.8955 47.8413 48.2526 48.7409 47.327 49.1039C40.4898 51.785 35.0189 53.161 29.5871 53.1381C24.1482 53.1151 18.9407 51.6903 12.6345 49.0926C11.7268 48.7186 11.1053 47.8277 11.1053 46.8113V37.1104L23.2425 31.6894L24.963 35.5414L15.3241 39.8466V45.63C20.8655 47.8318 25.2192 48.9008 29.605 48.9194C34.0138 48.938 38.6258 47.8956 44.6768 45.6042V39.882L34.3575 35.5611L35.987 31.6697Z" fill="#007BFB"/>
<path fill-rule="evenodd" clip-rule="evenodd" d="M32.1428 33.2581H27.8571V36.0229L27.4619 40.6331L29.9999 46.555L32.5378 40.6331L32.1428 36.0241V33.2581Z" fill="#007BFB"/>
</svg>
