<svg width="40" height="47" viewBox="0 0 40 47" fill="none" xmlns="http://www.w3.org/2000/svg">
<path fill-rule="evenodd" clip-rule="evenodd" d="M0.0439453 10.7806C0.0439453 5.33667 4.04325 0.865479 9.01719 0.865479H32.8476C33.4895 0.865479 34.0779 1.25901 34.3734 1.88591C34.6689 2.51283 34.6221 3.2686 34.2522 3.84569L6.81481 46.643L4.00556 44.4639L29.5323 4.64669H9.01719C5.96663 4.64669 3.48144 7.39759 3.48144 10.7806C3.48144 14.1499 5.99469 16.9145 9.05769 16.9145C12.1207 16.9145 14.6339 14.1499 14.6339 10.7806V8.10578H18.0714V10.7806C18.0714 16.2382 14.0192 20.6958 9.05769 20.6958C4.09619 20.6958 0.0439453 16.2382 0.0439453 10.7806ZM30.9427 28.7203C27.8631 28.7203 25.3664 31.4665 25.3664 34.8541C25.3664 38.2418 27.8631 40.988 30.9427 40.988C34.0224 40.988 36.519 38.2418 36.519 34.8541C36.519 31.4665 34.0224 28.7203 30.9427 28.7203ZM21.9289 34.8541C21.9289 29.3781 25.9646 24.939 30.9427 24.939C35.9209 24.939 39.9565 29.3781 39.9565 34.8541C39.9565 40.3301 35.9209 44.7693 30.9427 44.7693C25.9646 44.7693 21.9289 40.3301 21.9289 34.8541Z" fill="#007BFB"/>
</svg>
