<svg width="50" height="53" viewBox="0 0 50 53" fill="none" xmlns="http://www.w3.org/2000/svg">
<path fill-rule="evenodd" clip-rule="evenodd" d="M35.4927 3.38887L5.01784 33.8637L2.03473 30.8806L32.5097 0.405762L35.4927 3.38887ZM8.19822 6.49268C6.52262 6.49268 5.16418 7.85112 5.16418 9.52671C5.16418 11.2024 6.52262 12.5608 8.19822 12.5608C9.8739 12.5608 11.2323 11.2024 11.2323 9.52671C11.2323 7.85112 9.8739 6.49268 8.19822 6.49268ZM0.945435 9.52671C0.945435 5.52113 4.19263 2.27393 8.19822 2.27393C12.2039 2.27393 15.4511 5.52113 15.4511 9.52671C15.4511 13.5324 12.2039 16.7796 8.19822 16.7796C4.19263 16.7796 0.945435 13.5324 0.945435 9.52671ZM44.8361 25.8326L30.9259 11.9635L33.9047 8.97593L49.0548 24.0815V52.7836H8.83206V32.6722H13.0508V48.5649H44.8361V25.8326ZM28.772 22.0945C27.0963 22.0945 25.7379 23.4528 25.7379 25.1285C25.7379 26.8042 27.0963 28.1625 28.772 28.1625C30.4476 28.1625 31.8061 26.8042 31.8061 25.1285C31.8061 23.4528 30.4476 22.0945 28.772 22.0945ZM21.5192 25.1285C21.5192 21.1228 24.7664 17.8757 28.772 17.8757C32.7776 17.8757 36.0248 21.1228 36.0248 25.1285C36.0248 29.1341 32.7776 32.3813 28.772 32.3813C24.7664 32.3813 21.5192 29.1341 21.5192 25.1285Z" fill="#007BFB"/>
</svg>
