<svg width="48" height="53" viewBox="0 0 48 53" fill="none" xmlns="http://www.w3.org/2000/svg">
<path fill-rule="evenodd" clip-rule="evenodd" d="M24.0007 0.399414L47.1034 23.5022V45.3693H42.8846V25.2497L24.0007 6.36563L5.1166 25.2497V45.3693H0.897857V23.5022L24.0007 0.399414ZM13.9368 24.5027C16.335 22.1043 20.251 22.1043 22.6493 24.5027L24.0007 25.8539L25.352 24.5027C27.7502 22.1043 31.6662 22.1043 34.0645 24.5027C36.4628 26.9009 36.4628 30.8169 34.0645 33.2151L24.0007 43.279L13.9368 33.2151C11.5385 30.8169 11.5385 26.9009 13.9368 24.5027ZM19.6662 27.4857C18.9155 26.7349 17.6707 26.7349 16.9199 27.4857C16.1692 28.2364 16.1692 29.4813 16.9199 30.232L24.0007 37.3127L31.0814 30.232C31.8322 29.4813 31.8322 28.2364 31.0814 27.4857C30.3307 26.7349 29.0858 26.7349 28.335 27.4857L24.0007 31.8201L19.6662 27.4857ZM47.6183 48.5083V52.727H0.383057V48.5083H47.6183Z" fill="#007BFB"/>
</svg>
